# xmcd CD database file
#
# Track frame offsets:
#	150
#	15650
#	26565
#	49685
#	67150
#	80550
#	97715
#	113965
#	133480
#	153380
#	176470
#	191285
#	203720
#	213635
#	230590
#	248870
#	262930
#	280875
#
# Disc length: 4043 seconds
#
# Revision: 3
# Processed by: cddbd v1.4PL0 Copyright (c) Steve Scherf et al.
# Submitted via: CDex 1.50
#
DISCID=fc0fc912
DTITLE=Kroll's Anatoly MKC  BIG BAND - В джазе только девушки
DYEAR=1996
DGENRE=Jazz
TTITLE0=What Little Moon Light Can Do (H. Woods)
TTITLE1=A Tisket, A Tasket (E. Fitzgerald)
TTITLE2=Come Rain Or Come Shine (A. Arlen)
TTITLE3=Cry Me A River (A. Hamilton)
TTITLE4=How Insensitive (A. C. Jobim)
TTITLE5=I Concentrate On You (C. Porter)
TTITLE6=When You Wish Upon A Star (N. Washington, L. Harline)
TTITLE7=Any Way You Can (P. Austin)
TTITLE8=I'm In The Mood For Love (O. Fields, J. Moody, J. Mc. Hugh)
TTITLE9=It Might As well Be Spring (R. Hammerstain)
TTITLE10=The One I Love Belonges To Somebody Else (G. Kahn, J. Jones)
TTITLE11=I Never Dreamed You'd Leave In Summer (S. Wonder)
TTITLE12=Dancing Mountains (F. Foster)
TTITLE13=If It's Over (M. Garey)
TTITLE14=Rain (M. Nasimento)
TTITLE15=Triste (A. Govit)
TTITLE16=Don't Go To The Strangers (S. Woon)
TTITLE17=Touch (S. Lane, T. Greenberg, P. Laurence)
EXTD=YEAR: 1996
EXTT0=
EXTT1=
EXTT2=
EXTT3=
EXTT4=
EXTT5=
EXTT6=
EXTT7=
EXTT8=
EXTT9=
EXTT10=
EXTT11=
EXTT12=
EXTT13=
EXTT14=
EXTT15=
EXTT16=
EXTT17=
PLAYORDER=
